<svg width="25" height="36" viewBox="0 0 25 36" fill="none" xmlns="http://www.w3.org/2000/svg">
<path d="M24.2369 31.0596C24.7328 30.8014 24.9272 30.2017 24.6712 29.7201L20.4996 21.8719C20.2436 21.3903 19.634 21.2092 19.1382 21.4674C18.6423 21.7256 18.4478 22.3253 18.7038 22.8069L22.412 29.7831L15.229 33.5231C14.7331 33.7813 14.5387 34.381 14.7947 34.8626C15.0507 35.3442 15.6602 35.5253 16.1561 35.2671L24.2369 31.0596ZM23.7734 30.1876L24.0805 29.2404C23.4368 29.0491 22.8264 28.8467 22.2473 28.6342L21.8798 29.5614L21.5123 30.4885C22.133 30.7163 22.7837 30.9319 23.4662 31.1348L23.7734 30.1876ZM18.257 27.9042L18.7733 27.0459C17.5895 26.3751 16.591 25.6471 15.7415 24.8781L15.0494 25.6095L14.3573 26.3408C15.3185 27.2109 16.4358 28.023 17.7407 28.7625L18.257 27.9042ZM12.4931 22.6297L13.3448 22.0844C12.6483 21.0269 12.1097 19.9163 11.6709 18.7732L10.7243 19.1339L9.77778 19.4946C10.256 20.7404 10.8541 21.9797 11.6414 23.1751L12.4931 22.6297ZM9.58022 15.3837L10.5622 15.1356C10.2287 13.7935 9.99004 12.643 9.66858 11.3211L8.68541 11.5644L7.70224 11.8078C7.98213 12.9587 8.2868 14.3786 8.5982 15.6317L9.58022 15.3837ZM7.52794 7.81988L8.46476 7.43486C7.92129 6.12672 7.20707 4.89708 6.18752 3.8331L5.44563 4.51607L4.70374 5.19903C5.51488 6.04553 6.11264 7.05318 6.59112 8.20489L7.52794 7.81988ZM2.18106 2.33898L2.58431 1.42572C1.95524 1.16723 1.27292 0.946261 0.532111 0.764418L0.272114 1.72438L0.0121141 2.68435C0.663234 2.84417 1.24905 3.03498 1.77781 3.25224L2.18106 2.33898Z" fill="white"/>
</svg>
